<mxfile host="app.diagrams.net" agent="Mozilla/5.0 (Windows NT 10.0; Win64; x64) AppleWebKit/537.36 (KHTML, like Gecko) Chrome/135.0.0.0 Safari/537.36" version="26.1.1">
  <diagram name="Page-1" id="MbpDUXyPkNgqn3dvAoPM">
    <mxGraphModel dx="1156" dy="884" grid="1" gridSize="10" guides="1" tooltips="1" connect="1" arrows="1" fold="1" page="0" pageScale="1" pageWidth="850" pageHeight="1100" math="0" shadow="0">
      <root>
        <mxCell id="0" />
        <mxCell id="1" parent="0" />
        <mxCell id="sI-5W3gZ8LKhCkME_i8S-5" value="" style="rounded=0;whiteSpace=wrap;html=1;rotation=-90;fillColor=none;" vertex="1" parent="1">
          <mxGeometry x="-61" y="371" width="75" height="60" as="geometry" />
        </mxCell>
        <mxCell id="sI-5W3gZ8LKhCkME_i8S-6" value="" style="endArrow=none;html=1;rounded=0;fontSize=12;startSize=8;endSize=8;curved=1;exitX=1;exitY=1;exitDx=0;exitDy=0;entryX=1;entryY=1;entryDx=0;entryDy=-15;entryPerimeter=0;" edge="1" parent="1" source="sI-5W3gZ8LKhCkME_i8S-5" target="sI-5W3gZ8LKhCkME_i8S-8">
          <mxGeometry width="50" height="50" relative="1" as="geometry">
            <mxPoint x="238" y="226" as="sourcePoint" />
            <mxPoint x="257" y="59" as="targetPoint" />
            <Array as="points">
              <mxPoint x="31" y="81" />
            </Array>
          </mxGeometry>
        </mxCell>
        <mxCell id="sI-5W3gZ8LKhCkME_i8S-7" value="" style="endArrow=none;html=1;rounded=0;fontSize=12;startSize=8;endSize=8;curved=1;exitX=1;exitY=0;exitDx=0;exitDy=0;entryX=0;entryY=1;entryDx=0;entryDy=-15;entryPerimeter=0;" edge="1" parent="1" source="sI-5W3gZ8LKhCkME_i8S-5" target="sI-5W3gZ8LKhCkME_i8S-8">
          <mxGeometry width="50" height="50" relative="1" as="geometry">
            <mxPoint x="-24" y="306" as="sourcePoint" />
            <mxPoint x="257" y="-1" as="targetPoint" />
            <Array as="points">
              <mxPoint x="-33" y="20" />
            </Array>
          </mxGeometry>
        </mxCell>
        <mxCell id="sI-5W3gZ8LKhCkME_i8S-8" value="" style="shape=cylinder3;whiteSpace=wrap;html=1;boundedLbl=1;backgroundOutline=1;size=15;rotation=85;fillColor=none;" vertex="1" parent="1">
          <mxGeometry x="341" y="-87" width="64" height="113" as="geometry" />
        </mxCell>
        <mxCell id="sI-5W3gZ8LKhCkME_i8S-15" value="" style="endArrow=none;dashed=1;html=1;dashPattern=1 3;strokeWidth=2;rounded=0;fontSize=12;startSize=8;endSize=8;curved=1;entryX=1;entryY=1;entryDx=0;entryDy=-15;entryPerimeter=0;" edge="1" parent="1" target="sI-5W3gZ8LKhCkME_i8S-8">
          <mxGeometry width="50" height="50" relative="1" as="geometry">
            <mxPoint x="430" y="359" as="sourcePoint" />
            <mxPoint x="303" y="166" as="targetPoint" />
          </mxGeometry>
        </mxCell>
        <mxCell id="sI-5W3gZ8LKhCkME_i8S-16" value="" style="endArrow=none;dashed=1;html=1;dashPattern=1 3;strokeWidth=2;rounded=0;fontSize=12;startSize=8;endSize=8;curved=1;exitX=1;exitY=1;exitDx=0;exitDy=0;fillColor=#e1d5e7;strokeColor=#9673a6;" edge="1" parent="1" source="sI-5W3gZ8LKhCkME_i8S-5">
          <mxGeometry width="50" height="50" relative="1" as="geometry">
            <mxPoint x="253" y="216" as="sourcePoint" />
            <mxPoint x="428" y="358" as="targetPoint" />
          </mxGeometry>
        </mxCell>
        <mxCell id="sI-5W3gZ8LKhCkME_i8S-17" value="" style="endArrow=none;html=1;rounded=0;fontSize=12;startSize=8;endSize=8;curved=1;" edge="1" parent="1">
          <mxGeometry width="50" height="50" relative="1" as="geometry">
            <mxPoint x="382" y="358" as="sourcePoint" />
            <mxPoint x="417" y="311" as="targetPoint" />
            <Array as="points">
              <mxPoint x="378" y="316" />
            </Array>
          </mxGeometry>
        </mxCell>
        <mxCell id="sI-5W3gZ8LKhCkME_i8S-19" value="" style="endArrow=classic;html=1;rounded=0;fontSize=12;startSize=8;endSize=8;curved=1;exitX=1;exitY=0.5;exitDx=0;exitDy=0;fillColor=#e1d5e7;strokeColor=#9673A6;strokeWidth=2;" edge="1" parent="1" source="sI-5W3gZ8LKhCkME_i8S-5">
          <mxGeometry width="50" height="50" relative="1" as="geometry">
            <mxPoint x="100" y="256" as="sourcePoint" />
            <mxPoint x="-23" y="171" as="targetPoint" />
          </mxGeometry>
        </mxCell>
        <mxCell id="sI-5W3gZ8LKhCkME_i8S-20" value="" style="endArrow=classic;html=1;rounded=0;fontSize=12;startSize=8;endSize=8;curved=1;exitX=1;exitY=0.5;exitDx=0;exitDy=0;fillColor=#e1d5e7;strokeColor=#9673a6;strokeWidth=2;" edge="1" parent="1" source="sI-5W3gZ8LKhCkME_i8S-5">
          <mxGeometry width="50" height="50" relative="1" as="geometry">
            <mxPoint x="100" y="256" as="sourcePoint" />
            <mxPoint x="110" y="364" as="targetPoint" />
          </mxGeometry>
        </mxCell>
        <mxCell id="sI-5W3gZ8LKhCkME_i8S-21" value="" style="endArrow=classic;html=1;rounded=0;fontSize=12;startSize=8;endSize=8;curved=1;exitX=1;exitY=0.5;exitDx=0;exitDy=0;fillColor=#e1d5e7;strokeColor=#9673a6;strokeWidth=2;" edge="1" parent="1" source="sI-5W3gZ8LKhCkME_i8S-5">
          <mxGeometry width="50" height="50" relative="1" as="geometry">
            <mxPoint x="100" y="256" as="sourcePoint" />
            <mxPoint x="-89" y="434" as="targetPoint" />
          </mxGeometry>
        </mxCell>
        <mxCell id="sI-5W3gZ8LKhCkME_i8S-22" value="" style="endArrow=classic;html=1;rounded=0;fontSize=12;startSize=8;endSize=8;curved=1;fillColor=#d5e8d4;strokeColor=#82b366;strokeWidth=2;exitX=1;exitY=0.5;exitDx=0;exitDy=0;" edge="1" parent="1" source="sI-5W3gZ8LKhCkME_i8S-5">
          <mxGeometry width="50" height="50" relative="1" as="geometry">
            <mxPoint x="-24" y="363" as="sourcePoint" />
            <mxPoint x="-23" y="234" as="targetPoint" />
          </mxGeometry>
        </mxCell>
        <mxCell id="sI-5W3gZ8LKhCkME_i8S-23" value="" style="endArrow=classic;html=1;rounded=0;fontSize=12;startSize=8;endSize=8;curved=1;fillColor=#d5e8d4;strokeColor=#82b366;strokeWidth=2;exitX=1;exitY=0.5;exitDx=0;exitDy=0;" edge="1" parent="1" source="sI-5W3gZ8LKhCkME_i8S-5">
          <mxGeometry width="50" height="50" relative="1" as="geometry">
            <mxPoint x="-12" y="363" as="sourcePoint" />
            <mxPoint x="51" y="429" as="targetPoint" />
          </mxGeometry>
        </mxCell>
        <mxCell id="sI-5W3gZ8LKhCkME_i8S-24" value="" style="endArrow=classic;html=1;rounded=0;fontSize=12;startSize=8;endSize=8;curved=1;exitX=1;exitY=0.5;exitDx=0;exitDy=0;fillColor=#d5e8d4;strokeColor=#82b366;strokeWidth=2;" edge="1" parent="1" source="sI-5W3gZ8LKhCkME_i8S-5">
          <mxGeometry width="50" height="50" relative="1" as="geometry">
            <mxPoint x="-63" y="377" as="sourcePoint" />
            <mxPoint x="-136" y="388" as="targetPoint" />
          </mxGeometry>
        </mxCell>
        <mxCell id="sI-5W3gZ8LKhCkME_i8S-27" value="" style="endArrow=classic;html=1;rounded=0;fontSize=12;startSize=8;endSize=8;curved=1;exitX=0.5;exitY=1;exitDx=0;exitDy=0;exitPerimeter=0;fillColor=#fff2cc;strokeColor=#d6b656;strokeWidth=2;" edge="1" parent="1" source="sI-5W3gZ8LKhCkME_i8S-8">
          <mxGeometry width="50" height="50" relative="1" as="geometry">
            <mxPoint x="323" y="19" as="sourcePoint" />
            <mxPoint x="373" y="-31" as="targetPoint" />
          </mxGeometry>
        </mxCell>
        <mxCell id="sI-5W3gZ8LKhCkME_i8S-28" value="" style="endArrow=classic;html=1;rounded=0;fontSize=12;startSize=8;endSize=8;curved=1;exitX=0.5;exitY=1;exitDx=0;exitDy=0;exitPerimeter=0;fillColor=#fff2cc;strokeColor=#d6b656;strokeWidth=2;" edge="1" parent="1" source="sI-5W3gZ8LKhCkME_i8S-8">
          <mxGeometry width="50" height="50" relative="1" as="geometry">
            <mxPoint x="274" y="44" as="sourcePoint" />
            <mxPoint x="274" y="-62" as="targetPoint" />
          </mxGeometry>
        </mxCell>
        <mxCell id="sI-5W3gZ8LKhCkME_i8S-29" value="" style="endArrow=classic;html=1;rounded=0;fontSize=12;startSize=8;endSize=8;curved=1;exitX=0.5;exitY=1;exitDx=0;exitDy=0;exitPerimeter=0;fillColor=#fff2cc;strokeColor=#d6b656;strokeWidth=2;" edge="1" parent="1" source="sI-5W3gZ8LKhCkME_i8S-8">
          <mxGeometry width="50" height="50" relative="1" as="geometry">
            <mxPoint x="274" y="44" as="sourcePoint" />
            <mxPoint x="319" y="50" as="targetPoint" />
          </mxGeometry>
        </mxCell>
        <mxCell id="sI-5W3gZ8LKhCkME_i8S-30" value="" style="endArrow=classic;html=1;rounded=0;fontSize=12;startSize=8;endSize=8;curved=1;exitX=0.5;exitY=1;exitDx=0;exitDy=0;exitPerimeter=0;fillColor=#dae8fc;strokeColor=#6c8ebf;strokeWidth=2;" edge="1" parent="1">
          <mxGeometry width="50" height="50" relative="1" as="geometry">
            <mxPoint x="415" y="-40" as="sourcePoint" />
            <mxPoint x="471" y="-45" as="targetPoint" />
          </mxGeometry>
        </mxCell>
        <mxCell id="sI-5W3gZ8LKhCkME_i8S-31" value="" style="endArrow=classic;html=1;rounded=0;fontSize=12;startSize=8;endSize=8;curved=1;exitX=0.5;exitY=1;exitDx=0;exitDy=0;exitPerimeter=0;fillColor=#dae8fc;strokeColor=#6c8ebf;strokeWidth=2;" edge="1" parent="1">
          <mxGeometry width="50" height="50" relative="1" as="geometry">
            <mxPoint x="415" y="-40" as="sourcePoint" />
            <mxPoint x="372" y="-76" as="targetPoint" />
          </mxGeometry>
        </mxCell>
        <mxCell id="sI-5W3gZ8LKhCkME_i8S-32" value="" style="endArrow=classic;html=1;rounded=0;fontSize=12;startSize=8;endSize=8;curved=1;exitX=0.5;exitY=1;exitDx=0;exitDy=0;exitPerimeter=0;fillColor=#dae8fc;strokeColor=#6c8ebf;strokeWidth=2;" edge="1" parent="1">
          <mxGeometry width="50" height="50" relative="1" as="geometry">
            <mxPoint x="415" y="-40" as="sourcePoint" />
            <mxPoint x="417" y="36" as="targetPoint" />
          </mxGeometry>
        </mxCell>
        <mxCell id="sI-5W3gZ8LKhCkME_i8S-33" value="&lt;span style=&quot;color: rgb(32, 33, 34); text-align: start;&quot;&gt;φ&lt;/span&gt;" style="text;html=1;align=center;verticalAlign=middle;whiteSpace=wrap;rounded=0;fontSize=23;fontFamily=Times New Roman;" vertex="1" parent="1">
          <mxGeometry x="334" y="301" width="60" height="30" as="geometry" />
        </mxCell>
        <mxCell id="sI-5W3gZ8LKhCkME_i8S-34" value="&lt;span style=&quot;color: rgb(32, 33, 34); text-align: start;&quot;&gt;&lt;font&gt;θ&lt;/font&gt;&lt;/span&gt;" style="text;html=1;align=center;verticalAlign=middle;whiteSpace=wrap;rounded=0;fontSize=23;fontFamily=Times New Roman;" vertex="1" parent="1">
          <mxGeometry x="10" y="365" width="60" height="30" as="geometry" />
        </mxCell>
        <mxCell id="sI-5W3gZ8LKhCkME_i8S-36" value="&lt;font style=&quot;font-size: 23px;&quot;&gt;y&lt;/font&gt;&lt;font style=&quot;font-size: 19.1667px;&quot;&gt;&lt;sub&gt;tip&lt;/sub&gt;&lt;/font&gt;" style="text;html=1;align=center;verticalAlign=middle;whiteSpace=wrap;rounded=0;fontFamily=Times New Roman;" vertex="1" parent="1">
          <mxGeometry x="410" y="7" width="60" height="30" as="geometry" />
        </mxCell>
        <mxCell id="sI-5W3gZ8LKhCkME_i8S-37" value="&lt;font style=&quot;font-size: 23px;&quot;&gt;z&lt;/font&gt;&lt;font style=&quot;font-size: 19.1667px;&quot;&gt;&lt;sub&gt;base&lt;/sub&gt;&lt;/font&gt;" style="text;html=1;align=center;verticalAlign=middle;whiteSpace=wrap;rounded=0;fontFamily=Times New Roman;" vertex="1" parent="1">
          <mxGeometry x="-80" y="170" width="60" height="30" as="geometry" />
        </mxCell>
        <mxCell id="sI-5W3gZ8LKhCkME_i8S-38" value="&lt;font style=&quot;font-size: 23px;&quot;&gt;x&lt;/font&gt;&lt;font style=&quot;font-size: 19.1667px;&quot;&gt;&lt;sub&gt;base&lt;/sub&gt;&lt;/font&gt;" style="text;html=1;align=center;verticalAlign=middle;whiteSpace=wrap;rounded=0;fontFamily=Times New Roman;" vertex="1" parent="1">
          <mxGeometry x="-140" y="410" width="60" height="30" as="geometry" />
        </mxCell>
        <mxCell id="sI-5W3gZ8LKhCkME_i8S-43" value="&lt;font style=&quot;font-size: 23px;&quot; face=&quot;Times New Roman&quot;&gt;x&lt;sub&gt;0&lt;/sub&gt;&lt;/font&gt;" style="text;html=1;align=center;verticalAlign=middle;whiteSpace=wrap;rounded=0;" vertex="1" parent="1">
          <mxGeometry x="-160" y="350" width="60" height="30" as="geometry" />
        </mxCell>
        <mxCell id="sI-5W3gZ8LKhCkME_i8S-44" value="&lt;font style=&quot;font-size: 23px;&quot; face=&quot;Times New Roman&quot;&gt;z&lt;sub&gt;0&lt;/sub&gt;&lt;/font&gt;" style="text;html=1;align=center;verticalAlign=middle;whiteSpace=wrap;rounded=0;" vertex="1" parent="1">
          <mxGeometry x="-80" y="229" width="60" height="30" as="geometry" />
        </mxCell>
        <mxCell id="sI-5W3gZ8LKhCkME_i8S-45" value="&lt;font style=&quot;font-size: 23px;&quot; face=&quot;Times New Roman&quot;&gt;y&lt;sub&gt;0&lt;/sub&gt;&lt;/font&gt;" style="text;html=1;align=center;verticalAlign=middle;whiteSpace=wrap;rounded=0;" vertex="1" parent="1">
          <mxGeometry x="30" y="401" width="60" height="30" as="geometry" />
        </mxCell>
        <mxCell id="sI-5W3gZ8LKhCkME_i8S-46" value="" style="endArrow=none;html=1;rounded=0;fontSize=12;startSize=8;endSize=8;curved=1;exitX=0.314;exitY=-0.067;exitDx=0;exitDy=0;exitPerimeter=0;" edge="1" parent="1" source="sI-5W3gZ8LKhCkME_i8S-34">
          <mxGeometry width="50" height="50" relative="1" as="geometry">
            <mxPoint x="64" y="355" as="sourcePoint" />
            <mxPoint x="12" y="392" as="targetPoint" />
            <Array as="points">
              <mxPoint x="30" y="381" />
            </Array>
          </mxGeometry>
        </mxCell>
        <mxCell id="sI-5W3gZ8LKhCkME_i8S-47" value="&lt;font face=&quot;Times New Roman&quot;&gt;&lt;span style=&quot;font-size: 23px;&quot;&gt;O&lt;/span&gt;&lt;/font&gt;" style="text;html=1;align=center;verticalAlign=middle;whiteSpace=wrap;rounded=0;" vertex="1" parent="1">
          <mxGeometry x="-46" y="335" width="60" height="30" as="geometry" />
        </mxCell>
        <mxCell id="sI-5W3gZ8LKhCkME_i8S-49" value="&lt;font style=&quot;font-size: 23px;&quot;&gt;y&lt;/font&gt;&lt;font style=&quot;font-size: 19.1667px;&quot;&gt;&lt;sub&gt;base&lt;/sub&gt;&lt;/font&gt;" style="text;html=1;align=center;verticalAlign=middle;whiteSpace=wrap;rounded=0;fontFamily=Times New Roman;" vertex="1" parent="1">
          <mxGeometry x="74" y="331" width="60" height="30" as="geometry" />
        </mxCell>
        <mxCell id="sI-5W3gZ8LKhCkME_i8S-50" value="&lt;font style=&quot;font-size: 23px;&quot;&gt;x&lt;/font&gt;&lt;font style=&quot;font-size: 19.1667px;&quot;&gt;&lt;sub&gt;tip&lt;/sub&gt;&lt;/font&gt;" style="text;html=1;align=center;verticalAlign=middle;whiteSpace=wrap;rounded=0;fontFamily=Times New Roman;" vertex="1" parent="1">
          <mxGeometry x="362" y="-100" width="60" height="30" as="geometry" />
        </mxCell>
        <mxCell id="sI-5W3gZ8LKhCkME_i8S-51" value="&lt;font style=&quot;font-size: 23px;&quot;&gt;z&lt;/font&gt;&lt;font style=&quot;font-size: 19.1667px;&quot;&gt;&lt;sub&gt;tip&lt;/sub&gt;&lt;/font&gt;" style="text;html=1;align=center;verticalAlign=middle;whiteSpace=wrap;rounded=0;fontFamily=Times New Roman;" vertex="1" parent="1">
          <mxGeometry x="432.1" y="-81" width="60" height="30" as="geometry" />
        </mxCell>
        <mxCell id="sI-5W3gZ8LKhCkME_i8S-52" value="&lt;font style=&quot;font-size: 23px;&quot;&gt;y&lt;/font&gt;&lt;font style=&quot;font-size: 19.1667px;&quot;&gt;&lt;sub&gt;1&lt;/sub&gt;&lt;/font&gt;" style="text;html=1;align=center;verticalAlign=middle;whiteSpace=wrap;rounded=0;fontFamily=Times New Roman;" vertex="1" parent="1">
          <mxGeometry x="281" y="37" width="60" height="30" as="geometry" />
        </mxCell>
        <mxCell id="sI-5W3gZ8LKhCkME_i8S-53" value="&lt;font style=&quot;font-size: 23px;&quot;&gt;x&lt;/font&gt;&lt;font style=&quot;font-size: 19.1667px;&quot;&gt;&lt;sub&gt;1&lt;/sub&gt;&lt;/font&gt;" style="text;html=1;align=center;verticalAlign=middle;whiteSpace=wrap;rounded=0;fontFamily=Times New Roman;" vertex="1" parent="1">
          <mxGeometry x="260" y="-87" width="60" height="30" as="geometry" />
        </mxCell>
        <mxCell id="sI-5W3gZ8LKhCkME_i8S-54" value="&lt;font style=&quot;font-size: 23px;&quot;&gt;z&lt;/font&gt;&lt;font style=&quot;font-size: 19.1667px;&quot;&gt;&lt;sub&gt;1&lt;/sub&gt;&lt;/font&gt;" style="text;html=1;align=center;verticalAlign=middle;whiteSpace=wrap;rounded=0;fontFamily=Times New Roman;" vertex="1" parent="1">
          <mxGeometry x="334" y="-61" width="60" height="30" as="geometry" />
        </mxCell>
        <mxCell id="sI-5W3gZ8LKhCkME_i8S-56" value="&lt;font style=&quot;font-size: 23px;&quot; face=&quot;Times New Roman&quot;&gt;d&lt;/font&gt;" style="text;html=1;align=center;verticalAlign=middle;whiteSpace=wrap;rounded=0;" vertex="1" parent="1">
          <mxGeometry x="343" y="1" width="60" height="30" as="geometry" />
        </mxCell>
        <mxCell id="sI-5W3gZ8LKhCkME_i8S-57" value="&lt;span style=&quot;font-size: 23px;&quot;&gt;l&lt;/span&gt;" style="text;html=1;align=center;verticalAlign=middle;whiteSpace=wrap;rounded=0;fontFamily=Times New Roman;" vertex="1" parent="1">
          <mxGeometry x="24" y="37" width="60" height="30" as="geometry" />
        </mxCell>
      </root>
    </mxGraphModel>
  </diagram>
</mxfile>
